<svg width="44" height="30" viewBox="0 0 44 30" fill="none" xmlns="http://www.w3.org/2000/svg">
<path d="M0.6875 8.1875C0.6875 4.53411 0.6875 2.70742 1.82246 1.57246C2.95742 0.4375 4.78411 0.4375 8.4375 0.4375H35.5625C39.2159 0.4375 41.0426 0.4375 42.1775 1.57246C43.3125 2.70742 43.3125 4.53411 43.3125 8.1875V21.75C43.3125 25.4034 43.3125 27.2301 42.1775 28.365C41.0426 29.5 39.2159 29.5 35.5625 29.5H8.4375C4.78411 29.5 2.95742 29.5 1.82246 28.365C0.6875 27.2301 0.6875 25.4034 0.6875 21.75V8.1875Z" fill="white"/>
<path fill-rule="evenodd" clip-rule="evenodd" d="M6.5 19.8125C6.5 18.7424 7.36745 17.875 8.4375 17.875H23.9375C25.0076 17.875 25.875 18.7424 25.875 19.8125C25.875 20.8826 25.0076 21.75 23.9375 21.75H8.4375C7.36745 21.75 6.5 20.8826 6.5 19.8125Z" fill="#3775ED"/>
<path fill-rule="evenodd" clip-rule="evenodd" d="M29.75 19.8125C29.75 18.7424 30.6174 17.875 31.6875 17.875H35.5625C36.6326 17.875 37.5 18.7424 37.5 19.8125C37.5 20.8826 36.6326 21.75 35.5625 21.75H31.6875C30.6174 21.75 29.75 20.8826 29.75 19.8125Z" fill="#3775ED"/>
<path d="M14.25 10.125C14.25 12.2651 12.5151 14 10.375 14C8.2349 14 6.5 12.2651 6.5 10.125C6.5 7.9849 8.2349 6.25 10.375 6.25C12.5151 6.25 14.25 7.9849 14.25 10.125Z" fill="#3775ED"/>
<path d="M20.0625 10.125C20.0625 12.2651 18.3276 14 16.1875 14C14.0474 14 12.3125 12.2651 12.3125 10.125C12.3125 7.9849 14.0474 6.25 16.1875 6.25C18.3276 6.25 20.0625 7.9849 20.0625 10.125Z" fill="#3775ED"/>
</svg>
