<svg width="43" height="41" viewBox="0 0 43 41" fill="none" xmlns="http://www.w3.org/2000/svg">
<path fill-rule="evenodd" clip-rule="evenodd" d="M37.2416 4.34795e-06C37.2788 6.42666e-06 37.316 8.50538e-06 37.3534 8.50538e-06H40.6874C41.7574 8.50538e-06 42.6249 0.867457 42.6249 1.93751C42.6249 3.00756 41.7574 3.87501 40.6874 3.87501H37.3534C35.7839 3.87501 34.7829 3.87841 34.034 3.97036C33.338 4.05581 33.0938 4.19488 32.9483 4.31416C32.8028 4.43344 32.6185 4.64561 32.3982 5.31134C32.1612 6.02773 31.9615 7.00864 31.6537 8.54758L30.9623 12.005C30.7524 13.0543 29.7317 13.7347 28.6824 13.5249C27.6331 13.315 26.9527 12.2943 27.1625 11.245L27.854 7.78763C27.8613 7.75099 27.8686 7.71447 27.8759 7.67807C28.1553 6.28065 28.3987 5.06316 28.7194 4.09405C29.0652 3.04904 29.5657 2.07648 30.4916 1.31746C31.4174 0.558437 32.4693 0.258362 33.5618 0.124234C34.575 -0.000152713 35.8166 -7.97244e-05 37.2416 4.34795e-06Z" fill="white"/>
<path d="M3.23432 14.7984C3.53863 11.4509 3.69078 9.77723 4.80072 8.76361C5.91066 7.75 7.59127 7.75 10.9525 7.75H31.7392C34.0691 7.75 35.2341 7.75 35.8156 8.51145C36.3972 9.2729 36.0907 10.3968 35.4777 12.6446L32.5576 23.3517C31.8085 26.0982 31.434 27.4715 30.3925 28.267C29.3509 29.0625 27.9275 29.0625 25.0807 29.0625H10.4241C6.45594 29.0625 4.47186 29.0625 3.31944 27.8006C2.16702 26.5386 2.34665 24.5627 2.70591 20.6108L3.23432 14.7984Z" fill="white"/>
<path d="M29.0625 34.875C29.0625 37.0151 27.3276 38.75 25.1875 38.75C23.0474 38.75 21.3125 37.0151 21.3125 34.875C21.3125 32.7349 23.0474 31 25.1875 31C27.3276 31 29.0625 32.7349 29.0625 34.875Z" fill="white"/>
<path d="M7.75 34.875C7.75 37.0151 6.0151 38.75 3.875 38.75C1.7349 38.75 0 37.0151 0 34.875C0 32.7349 1.7349 31 3.875 31C6.0151 31 7.75 32.7349 7.75 34.875Z" fill="white"/>
<path d="M34.875 34.875C34.875 37.0151 33.1401 38.75 31 38.75C28.8599 38.75 27.125 37.0151 27.125 34.875C27.125 32.7349 28.8599 31 31 31C33.1401 31 34.875 32.7349 34.875 34.875Z" fill="white"/>
<path fill-rule="evenodd" clip-rule="evenodd" d="M36.8125 34.875C36.8125 38.0852 34.2102 40.6875 31 40.6875C27.7898 40.6875 25.1875 38.0852 25.1875 34.875C25.1875 31.6648 27.7898 29.0625 31 29.0625C34.2102 29.0625 36.8125 31.6648 36.8125 34.875ZM31 38.75C33.1401 38.75 34.875 37.0151 34.875 34.875C34.875 32.7349 33.1401 31 31 31C28.8599 31 27.125 32.7349 27.125 34.875C27.125 37.0151 28.8599 38.75 31 38.75Z" fill="#C96408"/>
<path d="M13.5625 34.875C13.5625 37.0151 11.8276 38.75 9.6875 38.75C7.5474 38.75 5.8125 37.0151 5.8125 34.875C5.8125 32.7349 7.5474 31 9.6875 31C11.8276 31 13.5625 32.7349 13.5625 34.875Z" fill="white"/>
<path fill-rule="evenodd" clip-rule="evenodd" d="M15.5 34.875C15.5 38.0852 12.8977 40.6875 9.6875 40.6875C6.47734 40.6875 3.875 38.0852 3.875 34.875C3.875 31.6648 6.47734 29.0625 9.6875 29.0625C12.8977 29.0625 15.5 31.6648 15.5 34.875ZM9.6875 38.75C11.8276 38.75 13.5625 37.0151 13.5625 34.875C13.5625 32.7349 11.8276 31 9.6875 31C7.5474 31 5.8125 32.7349 5.8125 34.875C5.8125 37.0151 7.5474 38.75 9.6875 38.75Z" fill="#C96408"/>
</svg>
