<svg width="48" height="31" viewBox="0 0 48 31" fill="none" xmlns="http://www.w3.org/2000/svg">
<path fill-rule="evenodd" clip-rule="evenodd" d="M36.8891 20.38C37.658 19.6233 38.9045 19.6233 39.6734 20.38L46.564 27.1612C47.3328 27.9179 47.3328 29.1446 46.564 29.9013C45.7951 30.6579 44.5486 30.6579 43.7798 29.9013L36.8891 23.12C36.1203 22.3634 36.1203 21.1366 36.8891 20.38Z" fill="white"/>
<path d="M42.2188 13.0312C42.2188 19.9866 36.4894 25.625 29.4219 25.625C22.3544 25.625 16.625 19.9866 16.625 13.0312C16.625 6.07591 22.3544 0.4375 29.4219 0.4375C36.4894 0.4375 42.2188 6.07591 42.2188 13.0312Z" fill="white"/>
<path fill-rule="evenodd" clip-rule="evenodd" d="M0.875 2.375C0.875 1.30495 1.75644 0.4375 2.84375 0.4375H14.6562C15.7436 0.4375 16.625 1.30495 16.625 2.375C16.625 3.44505 15.7436 4.3125 14.6562 4.3125H2.84375C1.75644 4.3125 0.875 3.44505 0.875 2.375Z" fill="white"/>
<path fill-rule="evenodd" clip-rule="evenodd" d="M0.875 10.125C0.875 9.05495 1.75644 8.1875 2.84375 8.1875H10.7188C11.8061 8.1875 12.6875 9.05495 12.6875 10.125C12.6875 11.1951 11.8061 12.0625 10.7188 12.0625H2.84375C1.75644 12.0625 0.875 11.1951 0.875 10.125Z" fill="white"/>
<path fill-rule="evenodd" clip-rule="evenodd" d="M0.875 17.875C0.875 16.8049 1.75644 15.9375 2.84375 15.9375H10.7188C11.8061 15.9375 12.6875 16.8049 12.6875 17.875C12.6875 18.9451 11.8061 19.8125 10.7188 19.8125H2.84375C1.75644 19.8125 0.875 18.9451 0.875 17.875Z" fill="white"/>
</svg>
