<svg width="35" height="35" viewBox="0 0 35 35" fill="none" xmlns="http://www.w3.org/2000/svg">
<rect x="0.5" y="0.5" width="34" height="34" rx="9.5" stroke="#C4C4C4"/>
<path d="M25.4559 14.921C25.4475 14.2899 25.3293 13.665 25.1067 13.0744C24.9137 12.5762 24.6188 12.1237 24.241 11.7459C23.8632 11.3681 23.4108 11.0733 22.9126 10.8802C22.3295 10.6613 21.7135 10.543 21.0909 10.5302C20.2892 10.4944 20.0351 10.4844 18.0001 10.4844C15.9651 10.4844 15.7042 10.4844 14.9084 10.5302C14.286 10.5431 13.6703 10.6614 13.0876 10.8802C12.5893 11.0731 12.1367 11.3679 11.7589 11.7457C11.3811 12.1236 11.0863 12.5761 10.8934 13.0744C10.6741 13.657 10.556 14.2728 10.5442 14.8952C10.5084 15.6977 10.4976 15.9519 10.4976 17.9869C10.4976 20.0219 10.4976 20.2819 10.5442 21.0785C10.5567 21.7019 10.6742 22.3169 10.8934 22.901C11.0866 23.3992 11.3816 23.8515 11.7596 24.2292C12.1375 24.6068 12.5901 24.9015 13.0884 25.0944C13.6696 25.322 14.2854 25.4489 14.9092 25.4694C15.7117 25.5052 15.9659 25.516 18.0009 25.516C20.0359 25.516 20.2967 25.516 21.0926 25.4694C21.7152 25.4571 22.3312 25.339 22.9142 25.1202C23.4123 24.9269 23.8646 24.632 24.2424 24.2542C24.6202 23.8765 24.9151 23.4241 25.1084 22.926C25.3276 22.3427 25.4451 21.7277 25.4576 21.1035C25.4934 20.3019 25.5042 20.0477 25.5042 18.0119C25.5026 15.9769 25.5026 15.7185 25.4559 14.921V14.921ZM17.9951 21.8352C15.8667 21.8352 14.1426 20.111 14.1426 17.9827C14.1426 15.8544 15.8667 14.1302 17.9951 14.1302C19.0168 14.1302 19.9967 14.5361 20.7192 15.2586C21.4417 15.9811 21.8476 16.961 21.8476 17.9827C21.8476 19.0045 21.4417 19.9844 20.7192 20.7068C19.9967 21.4293 19.0168 21.8352 17.9951 21.8352V21.8352ZM22.0009 14.886C21.8829 14.8862 21.766 14.863 21.657 14.8179C21.5479 14.7728 21.4489 14.7066 21.3654 14.6232C21.282 14.5397 21.2158 14.4407 21.1707 14.3316C21.1256 14.2226 21.1024 14.1057 21.1026 13.9877C21.1026 13.8698 21.1258 13.753 21.1709 13.6441C21.216 13.5352 21.2822 13.4362 21.3656 13.3528C21.4489 13.2694 21.5479 13.2033 21.6569 13.1581C21.7658 13.113 21.8826 13.0898 22.0005 13.0898C22.1184 13.0898 22.2352 13.113 22.3441 13.1581C22.453 13.2033 22.552 13.2694 22.6354 13.3528C22.7188 13.4362 22.7849 13.5352 22.83 13.6441C22.8752 13.753 22.8984 13.8698 22.8984 13.9877C22.8984 14.4844 22.4967 14.886 22.0009 14.886Z" fill="white"/>
<path d="M17.9951 20.485C19.3771 20.485 20.4976 19.3646 20.4976 17.9825C20.4976 16.6004 19.3771 15.48 17.9951 15.48C16.613 15.48 15.4926 16.6004 15.4926 17.9825C15.4926 19.3646 16.613 20.485 17.9951 20.485Z" fill="white"/>
</svg>
