<svg width="35" height="35" viewBox="0 0 35 35" fill="none" xmlns="http://www.w3.org/2000/svg">
<rect x="0.5" y="0.5" width="34" height="34" rx="9.5" stroke="#C4C4C4"/>
<rect x="8" y="8" width="20" height="20" rx="5" fill="white"/>
<path d="M15.2387 23.0004H13.1654V16.3237H15.2387V23.0004ZM14.2008 15.4129C13.5379 15.4129 13 14.8636 13 14.2008C13 13.8823 13.1265 13.5769 13.3517 13.3517C13.5769 13.1265 13.8823 13 14.2008 13C14.5192 13 14.8246 13.1265 15.0498 13.3517C15.275 13.5769 15.4015 13.8823 15.4015 14.2008C15.4015 14.8636 14.8636 15.4129 14.2008 15.4129ZM22.9982 23.0004H20.9296V19.7502C20.9296 18.9756 20.9139 17.9823 19.8517 17.9823C18.7738 17.9823 18.6084 18.8238 18.6084 19.6945V23.0004H16.5373V16.3237H18.5256V17.2344H18.5545C18.8313 16.7098 19.5074 16.1562 20.516 16.1562C22.6143 16.1562 23 17.538 23 19.3327V23.0004H22.9982Z" fill="black"/>
</svg>
