<svg width="35" height="35" viewBox="0 0 35 35" fill="none" xmlns="http://www.w3.org/2000/svg">
<rect x="0.5" y="0.5" width="34" height="34" rx="9.5" stroke="#C4C4C4"/>
<path d="M27.9217 11.8246C27.2258 12.1329 26.4783 12.3413 25.6925 12.4354C26.5033 11.9503 27.11 11.1867 27.3992 10.2871C26.6374 10.7396 25.8036 11.0581 24.9342 11.2288C24.3495 10.6045 23.5751 10.1907 22.7311 10.0517C21.8872 9.91262 21.0209 10.0561 20.2669 10.4598C19.5128 10.8635 18.9131 11.5049 18.561 12.2844C18.2088 13.0638 18.1238 13.9377 18.3192 14.7704C16.7756 14.6929 15.2655 14.2917 13.887 13.5929C12.5085 12.894 11.2924 11.9131 10.3175 10.7138C9.98417 11.2888 9.7925 11.9554 9.7925 12.6654C9.79213 13.3046 9.94953 13.934 10.2507 14.4977C10.5519 15.0615 10.9876 15.5421 11.5192 15.8971C10.9027 15.8775 10.2999 15.7109 9.76083 15.4113V15.4613C9.76077 16.3577 10.0709 17.2266 10.6385 17.9204C11.2061 18.6143 11.9963 19.0904 12.875 19.2679C12.3032 19.4227 11.7036 19.4455 11.1217 19.3346C11.3696 20.1059 11.8525 20.7805 12.5028 21.2637C13.1531 21.747 13.9383 22.0147 14.7483 22.0296C13.3732 23.1091 11.6749 23.6947 9.92667 23.6921C9.61698 23.6922 9.30756 23.6741 9 23.6379C10.7746 24.7789 12.8403 25.3844 14.95 25.3821C22.0917 25.3821 25.9958 19.4671 25.9958 14.3371C25.9958 14.1704 25.9917 14.0021 25.9842 13.8354C26.7436 13.2862 27.3991 12.6062 27.92 11.8271L27.9217 11.8246V11.8246Z" fill="#F7F7F7"/>
</svg>
